<?xml version="1.0" encoding="utf-8"?>
<!-- Generator: Adobe Illustrator 27.5.0, SVG Export Plug-In . SVG Version: 6.00 Build 0)  -->
<svg version="1.2" baseProfile="tiny" id="Layer_1" xmlns="http://www.w3.org/2000/svg" xmlns:xlink="http://www.w3.org/1999/xlink"
	 x="0px" y="0px" viewBox="0 0 240 65.2" overflow="visible" xml:space="preserve">
<g>
	<g>
		<circle fill="#C9F73A" cx="32.6" cy="32.6" r="32.6"/>
		<path d="M52.4,46.5H48V36.2c0-2.8-1.8-5.1-4.7-5.1c-3,0-4.8,2.2-4.8,5.1v10.4H34V36.1c0-5.6,3.6-9.3,9.2-9.3
			c5.6,0,9.1,3.6,9.1,9.3L52.4,46.5L52.4,46.5z"/>
		<path d="M12.7,18.7h4.4v10.4c0,2.8,1.8,5.1,4.7,5.1c3,0,4.8-2.2,4.8-5.1V18.7h4.4v10.4c0,5.6-3.6,9.3-9.2,9.3
			c-5.6,0-9.1-3.6-9.1-9.3L12.7,18.7L12.7,18.7z"/>
	</g>
	<g>
		<path fill="#FFFFFF" d="M107.9,35.2c-0.3,2.1-1,4.1-2.2,5.8c-1.2,1.7-2.8,3.1-4.7,4.1c-1.9,1-4.1,1.5-6.6,1.5
			c-2.7,0-5.1-0.6-7.2-1.9c-2.1-1.2-3.7-2.9-4.9-5c-1.1-2.1-1.7-4.4-1.7-7s0.6-4.9,1.7-7c1.1-2.1,2.8-3.8,4.9-5.1
			c2.1-1.2,4.5-1.9,7.2-1.9c2.4,0,4.5,0.5,6.4,1.5c1.9,1,3.5,2.3,4.7,4c1.2,1.7,2,3.6,2.3,5.7h-5.9c-0.5-1.6-1.3-3-2.7-4
			c-1.3-1-2.9-1.5-4.8-1.5c-1.6,0-3,0.4-4.3,1.1c-1.2,0.8-2.2,1.8-2.8,3c-0.7,1.3-1,2.7-1,4.2c0,1.5,0.3,2.9,1,4.2
			c0.6,1.3,1.6,2.3,2.8,3c1.2,0.8,2.6,1.1,4.3,1.1c1.9,0,3.6-0.5,5-1.6c1.4-1.1,2.2-2.5,2.6-4.2H107.9z"/>
		<path fill="#FFFFFF" d="M111.4,46V19.3h13.6c2.8,0,5,0.7,6.7,1.9c1.7,1.3,2.5,3.1,2.5,5.5c0,2.5-0.9,4.3-2.6,5.6v0.1
			c2.2,0.6,3.3,2.2,3.3,5V46h-5.6v-7.5c0-0.5-0.1-0.9-0.4-1.2c-0.3-0.3-0.7-0.4-1.2-0.4h-10.5V46H111.4z M124.7,31.8
			c1.2,0,2.2-0.3,2.9-0.9c0.7-0.6,1.1-1.5,1.1-2.6c0-1.1-0.4-1.9-1.1-2.5c-0.7-0.6-1.7-0.9-2.8-0.9h-7.6v7H124.7z"/>
		<path fill="#FFFFFF" d="M155.4,19.3h6.4l-10.7,16.4V46h-5.6V35.7l-10.7-16.4h6.5l7,11.1L155.4,19.3z"/>
		<path fill="#FFFFFF" d="M182,20.5c1.4,0.8,2.5,1.9,3.3,3.3c0.8,1.4,1.2,3,1.2,4.7c0,1.8-0.4,3.3-1.2,4.7c-0.8,1.4-1.9,2.5-3.4,3.3
			c-1.4,0.8-3,1.2-4.7,1.2h-7.7V46h-5.6V19.3h13.4C179,19.3,180.6,19.7,182,20.5z M176.9,32.3c1.1,0,2.1-0.3,2.8-1
			c0.8-0.7,1.1-1.6,1.1-2.7c0-1.1-0.4-1.9-1.2-2.6c-0.8-0.7-1.7-1-2.8-1h-7.3v7.4H176.9z"/>
		<path fill="#FFFFFF" d="M187.8,19.3h23.6v5.5h-9V46h-5.7V24.8h-8.9V19.3z"/>
		<path fill="#FFFFFF" d="M218.6,44.7c-2.1-1.2-3.8-2.9-4.9-5c-1.2-2.1-1.8-4.4-1.8-7s0.6-4.9,1.8-7c1.2-2.1,2.8-3.8,4.9-5.1
			c2.1-1.3,4.6-1.9,7.4-1.9c2.8,0,5.2,0.6,7.3,1.9c2.1,1.3,3.8,3,5,5.1c1.2,2.1,1.8,4.5,1.8,7s-0.6,4.9-1.8,7
			c-1.2,2.1-2.8,3.8-4.9,5c-2.1,1.2-4.6,1.9-7.4,1.9S220.7,45.9,218.6,44.7z M230.3,39.9c1.2-0.8,2.2-1.8,2.9-3c0.7-1.3,1-2.7,1-4.2
			c0-1.5-0.3-2.9-1-4.2c-0.7-1.3-1.6-2.3-2.9-3c-1.2-0.8-2.7-1.1-4.4-1.1s-3.1,0.4-4.4,1.1c-1.2,0.8-2.2,1.8-2.9,3
			c-0.7,1.3-1,2.7-1,4.2c0,1.5,0.3,2.9,1,4.2c0.7,1.3,1.6,2.3,2.9,3c1.2,0.8,2.7,1.1,4.4,1.1S229.1,40.6,230.3,39.9z"/>
	</g>
</g>
</svg>
